<?xml version="1.0" standalone="no"?>
<!DOCTYPE svg PUBLIC "-//W3C//DTD SVG 20010904//EN"
 "http://www.w3.org/TR/2001/REC-SVG-20010904/DTD/svg10.dtd">
<svg version="1.0" xmlns="http://www.w3.org/2000/svg"
 width="288.000000pt" height="288.000000pt" viewBox="0 0 288.000000 288.000000"
 preserveAspectRatio="xMidYMid meet">

<g transform="translate(0.000000,288.000000) scale(0.100000,-0.100000)"
fill="#000000" stroke="none">
<path d="M1330 2874 c-211 -25 -375 -71 -531 -149 -411 -207 -687 -578 -775
-1040 -24 -124 -23 -357 0 -490 108 -600 571 -1064 1171 -1171 133 -23 356
-24 490 0 597 105 1064 572 1171 1171 24 134 24 356 0 490 -94 526 -463 952
-970 1120 -55 18 -144 41 -196 49 -97 17 -297 28 -360 20z m404 -268 c537
-141 906 -615 906 -1166 0 -188 -37 -352 -115 -515 -205 -425 -617 -685 -1085
-685 -298 0 -574 104 -790 297 -269 240 -410 550 -410 903 0 353 141 664 410
905 156 138 364 240 576 280 127 24 382 14 508 -19z"/>
<path d="M1320 2280 l0 -120 120 0 120 0 0 120 0 120 -120 0 -120 0 0 -120z"/>
<path d="M1320 1200 l0 -720 120 0 120 0 0 720 0 720 -120 0 -120 0 0 -720z"/>
</g>
</svg>
